<svg width="80" height="80" viewBox="0 0 80 80" fill="none" xmlns="http://www.w3.org/2000/svg">
<g id="icon_catalog_16">
<rect width="80" height="80" rx="8" fill="white"/>
<g id="icon-catalog-06">
<g id="&#208;&#161;&#208;&#179;&#209;&#128;&#209;&#131;&#208;&#191;&#208;&#191;&#208;&#184;&#209;&#128;&#208;&#190;&#208;&#178;&#208;&#176;&#209;&#130;&#209;&#140; 302">
<g id="&#208;&#161;&#208;&#179;&#209;&#128;&#209;&#131;&#208;&#191;&#208;&#191;&#208;&#184;&#209;&#128;&#208;&#190;&#208;&#178;&#208;&#176;&#209;&#130;&#209;&#140; 301">
<path id="&#208;&#154;&#208;&#190;&#208;&#189;&#209;&#130;&#209;&#131;&#209;&#128; 259" d="M28.515 19.8223C28.4267 19.8223 28.3392 19.8397 28.2576 19.8735C28.1761 19.9072 28.1019 19.9568 28.0395 20.0192C27.977 20.0817 27.9275 20.1558 27.8937 20.2374C27.8599 20.319 27.8425 20.4064 27.8425 20.4947V22.1229C27.8425 22.3014 27.9134 22.4725 28.0396 22.5987C28.1658 22.7248 28.3369 22.7957 28.5153 22.7957C28.6937 22.7957 28.8649 22.7248 28.991 22.5987C29.1172 22.4725 29.1881 22.3014 29.1881 22.1229V20.4954C29.1882 20.407 29.1708 20.3194 29.137 20.2377C29.1032 20.156 29.0537 20.0817 28.9911 20.0192C28.9286 19.9567 28.8544 19.9071 28.7727 19.8733C28.691 19.8395 28.6034 19.8222 28.515 19.8223Z" fill="#328A27"/>
</g>
</g>
<g id="&#208;&#161;&#208;&#179;&#209;&#128;&#209;&#131;&#208;&#191;&#208;&#191;&#208;&#184;&#209;&#128;&#208;&#190;&#208;&#178;&#208;&#176;&#209;&#130;&#209;&#140; 304">
<g id="&#208;&#161;&#208;&#179;&#209;&#128;&#209;&#131;&#208;&#191;&#208;&#191;&#208;&#184;&#209;&#128;&#208;&#190;&#208;&#178;&#208;&#176;&#209;&#130;&#209;&#140; 303">
<path id="&#208;&#154;&#208;&#190;&#208;&#189;&#209;&#130;&#209;&#131;&#209;&#128; 260" d="M32.637 19.8223C32.5487 19.8223 32.4613 19.8397 32.3797 19.8735C32.2981 19.9072 32.224 19.9568 32.1616 20.0192C32.0991 20.0817 32.0496 20.1558 32.0158 20.2374C31.982 20.319 31.9646 20.4064 31.9646 20.4947V22.1229C31.9646 22.3014 32.0355 22.4725 32.1617 22.5987C32.2878 22.7248 32.4589 22.7957 32.6374 22.7957C32.8158 22.7957 32.9869 22.7248 33.1131 22.5987C33.2393 22.4725 33.3102 22.3014 33.3102 22.1229V20.4954C33.3102 20.407 33.2929 20.3194 33.2591 20.2377C33.2253 20.156 33.1757 20.0817 33.1132 20.0192C33.0507 19.9567 32.9764 19.9071 32.8947 19.8733C32.813 19.8395 32.7255 19.8222 32.637 19.8223Z" fill="#328A27"/>
</g>
</g>
<g id="&#208;&#161;&#208;&#179;&#209;&#128;&#209;&#131;&#208;&#191;&#208;&#191;&#208;&#184;&#209;&#128;&#208;&#190;&#208;&#178;&#208;&#176;&#209;&#130;&#209;&#140; 306">
<g id="&#208;&#161;&#208;&#179;&#209;&#128;&#209;&#131;&#208;&#191;&#208;&#191;&#208;&#184;&#209;&#128;&#208;&#190;&#208;&#178;&#208;&#176;&#209;&#130;&#209;&#140; 305">
<path id="&#208;&#154;&#208;&#190;&#208;&#189;&#209;&#130;&#209;&#131;&#209;&#128; 261" d="M36.7591 19.8223C36.6708 19.8223 36.5834 19.8397 36.5018 19.8735C36.4202 19.9072 36.3461 19.9568 36.2836 20.0192C36.2212 20.0817 36.1716 20.1558 36.1379 20.2374C36.1041 20.319 36.0867 20.4064 36.0867 20.4947V22.1229C36.0867 22.3014 36.1576 22.4725 36.2837 22.5987C36.4099 22.7248 36.581 22.7957 36.7594 22.7957C36.9379 22.7957 37.109 22.7248 37.2352 22.5987C37.3613 22.4725 37.4322 22.3014 37.4322 22.1229V20.4954C37.4323 20.407 37.415 20.3194 37.3812 20.2377C37.3474 20.156 37.2978 20.0817 37.2353 20.0192C37.1727 19.9567 37.0985 19.9071 37.0168 19.8733C36.9351 19.8395 36.8475 19.8222 36.7591 19.8223Z" fill="#328A27"/>
</g>
</g>
<g id="&#208;&#161;&#208;&#179;&#209;&#128;&#209;&#131;&#208;&#191;&#208;&#191;&#208;&#184;&#209;&#128;&#208;&#190;&#208;&#178;&#208;&#176;&#209;&#130;&#209;&#140; 308">
<g id="&#208;&#161;&#208;&#179;&#209;&#128;&#209;&#131;&#208;&#191;&#208;&#191;&#208;&#184;&#209;&#128;&#208;&#190;&#208;&#178;&#208;&#176;&#209;&#130;&#209;&#140; 307">
<path id="&#208;&#154;&#208;&#190;&#208;&#189;&#209;&#130;&#209;&#131;&#209;&#128; 262" d="M40.8758 19.8223C40.7875 19.8223 40.7001 19.8397 40.6185 19.8735C40.5369 19.9072 40.4628 19.9568 40.4003 20.0192C40.3379 20.0817 40.2883 20.1558 40.2546 20.2374C40.2208 20.319 40.2034 20.4064 40.2034 20.4947V22.1229C40.2034 22.3014 40.2742 22.4725 40.4004 22.5987C40.5266 22.7248 40.6977 22.7957 40.8761 22.7957C41.0546 22.7957 41.2257 22.7248 41.3519 22.5987C41.478 22.4725 41.5489 22.3014 41.5489 22.1229V20.4954C41.549 20.407 41.5317 20.3194 41.4979 20.2377C41.4641 20.156 41.4145 20.0817 41.352 20.0192C41.2894 19.9567 41.2152 19.9071 41.1335 19.8733C41.0518 19.8395 40.9642 19.8222 40.8758 19.8223Z" fill="#328A27"/>
</g>
</g>
<g id="&#208;&#161;&#208;&#179;&#209;&#128;&#209;&#131;&#208;&#191;&#208;&#191;&#208;&#184;&#209;&#128;&#208;&#190;&#208;&#178;&#208;&#176;&#209;&#130;&#209;&#140; 310">
<g id="&#208;&#161;&#208;&#179;&#209;&#128;&#209;&#131;&#208;&#191;&#208;&#191;&#208;&#184;&#209;&#128;&#208;&#190;&#208;&#178;&#208;&#176;&#209;&#130;&#209;&#140; 309">
<path id="&#208;&#154;&#208;&#190;&#208;&#189;&#209;&#130;&#209;&#131;&#209;&#128; 263" d="M44.9979 19.8223C44.9096 19.8223 44.8221 19.8397 44.7405 19.8735C44.659 19.9072 44.5848 19.9568 44.5224 20.0192C44.4599 20.0817 44.4104 20.1558 44.3766 20.2374C44.3428 20.319 44.3254 20.4064 44.3254 20.4947V22.1229C44.3254 22.3014 44.3963 22.4725 44.5225 22.5987C44.6487 22.7248 44.8198 22.7957 44.9982 22.7957C45.1767 22.7957 45.3478 22.7248 45.4739 22.5987C45.6001 22.4725 45.671 22.3014 45.671 22.1229V20.4954C45.6711 20.407 45.6537 20.3194 45.6199 20.2377C45.5861 20.156 45.5366 20.0817 45.474 20.0192C45.4115 19.9567 45.3373 19.9071 45.2556 19.8733C45.1739 19.8395 45.0863 19.8222 44.9979 19.8223Z" fill="#328A27"/>
</g>
</g>
<g id="&#208;&#161;&#208;&#179;&#209;&#128;&#209;&#131;&#208;&#191;&#208;&#191;&#208;&#184;&#209;&#128;&#208;&#190;&#208;&#178;&#208;&#176;&#209;&#130;&#209;&#140; 312">
<g id="&#208;&#161;&#208;&#179;&#209;&#128;&#209;&#131;&#208;&#191;&#208;&#191;&#208;&#184;&#209;&#128;&#208;&#190;&#208;&#178;&#208;&#176;&#209;&#130;&#209;&#140; 311">
<path id="&#208;&#154;&#208;&#190;&#208;&#189;&#209;&#130;&#209;&#131;&#209;&#128; 264" d="M58.165 41.8249C57.0698 40.7404 55.5893 40.1346 54.0481 40.1402C53.5296 40.1401 53.0133 40.2082 52.5125 40.3426V33.2553C52.5093 32.5782 52.3299 31.9136 51.9918 31.3269C51.6538 30.7403 51.1688 30.2518 50.5846 29.9094L46.5749 27.5588V25.5211H47.7232C48.2692 25.5242 48.7941 25.3106 49.1827 24.9271C49.5713 24.5435 49.7918 24.0214 49.7958 23.4755V19.0398C49.7918 18.4943 49.5716 17.9726 49.1836 17.5891C48.7956 17.2057 48.2714 16.9917 47.7258 16.9942H25.7893C25.2436 16.9914 24.719 17.2052 24.3307 17.5887C23.9424 17.9722 23.7221 18.494 23.7181 19.0398V23.4755C23.7221 24.0212 23.9424 24.5431 24.3307 24.9266C24.719 25.3101 25.2436 25.5239 25.7893 25.5211H26.9377V27.5588L22.928 29.9094C22.3438 30.2518 21.8588 30.7403 21.5207 31.3269C21.1827 31.9136 21.0032 32.5782 21 33.2553V59.4375C21.007 60.3903 21.3917 61.3013 22.0698 61.9707C22.7479 62.64 23.6639 63.0129 24.6166 63.0075H48.8985C49.8511 63.0126 50.7667 62.6395 51.4445 61.9702C52.1223 61.3009 52.5069 60.39 52.5139 59.4375V55.5428L58.1669 49.9594C58.7061 49.4281 59.1342 48.7948 59.4264 48.0965C59.7185 47.3982 59.8689 46.6487 59.8687 45.8918C59.8685 45.1348 59.7178 44.3854 59.4253 43.6872C59.1328 42.989 58.7044 42.356 58.165 41.8249ZM25.7893 24.1926C25.5987 24.1926 25.4158 24.1174 25.2804 23.9832C25.1449 23.849 25.068 23.6668 25.0663 23.4761V19.0398C25.0678 18.849 25.1447 18.6666 25.2801 18.5323C25.4156 18.398 25.5986 18.3226 25.7893 18.3226H47.7258C47.9166 18.3226 48.0996 18.398 48.2351 18.5323C48.3705 18.6666 48.4474 18.849 48.4489 19.0398V23.4755C48.4472 23.6661 48.3702 23.8483 48.2348 23.9825C48.0994 24.1167 47.9165 24.192 47.7258 24.192L25.7893 24.1926ZM45.2319 25.5217V27.2735H28.2832V25.5211L45.2319 25.5217ZM24.6166 61.6783C24.0189 61.6813 23.4443 61.4471 23.0191 61.027C22.5938 60.6069 22.3525 60.0353 22.3482 59.4375V54.2446H33.6425C34.3088 54.2479 34.9491 53.9868 35.4231 53.5185C35.8971 53.0502 36.1659 52.413 36.1706 51.7467V38.7618C36.1659 38.0955 35.8971 37.4583 35.4231 36.99C34.9491 36.5217 34.3088 36.2606 33.6425 36.2639H27.8514C27.6751 36.2639 27.5061 36.3339 27.3815 36.4585C27.2568 36.5832 27.1868 36.7522 27.1868 36.9284C27.1868 37.1047 27.2568 37.2737 27.3815 37.3984C27.5061 37.523 27.6751 37.593 27.8514 37.593H33.6425C33.9542 37.5913 34.2539 37.7133 34.4757 37.9323C34.6976 38.1513 34.8234 38.4494 34.8257 38.7611V51.7447C34.8234 52.0565 34.6976 52.3545 34.4757 52.5735C34.2539 52.7925 33.9542 52.9146 33.6425 52.9128H22.3482V37.593H24.7146C24.8908 37.593 25.0599 37.523 25.1845 37.3984C25.3091 37.2737 25.3792 37.1047 25.3792 36.9284C25.3792 36.7522 25.3091 36.5832 25.1845 36.4585C25.0599 36.3339 24.8908 36.2639 24.7146 36.2639H22.3482V33.2553C22.3502 32.8094 22.4684 32.3718 22.6909 31.9854C22.9135 31.5991 23.2328 31.2773 23.6175 31.0519L27.7955 28.6014H45.7203L49.8983 31.0519C50.283 31.2773 50.6023 31.5991 50.8249 31.9854C51.0475 32.3718 51.1656 32.8094 51.1676 33.2553V40.8922C50.716 41.1466 50.3002 41.4601 49.9312 41.8243L38.4239 53.1889C37.8847 53.7201 37.4565 54.3532 37.1643 55.0514C36.872 55.7496 36.7215 56.4989 36.7215 57.2558C36.7215 58.0127 36.872 58.7621 37.1643 59.4602C37.4565 60.1584 37.8847 60.7915 38.4239 61.3227C38.5508 61.4483 38.6829 61.5659 38.8183 61.6783H24.6166ZM51.1676 59.4375C51.1633 60.0353 50.922 60.6069 50.4968 61.027C50.0715 61.4471 49.4969 61.6813 48.8992 61.6783H46.2699C46.4059 61.5659 46.538 61.4483 46.6642 61.3227L51.1703 56.8713L51.1676 59.4375ZM57.2151 49.0194L51.9387 54.2301L48.8223 51.1512C48.6953 51.0266 48.5246 50.9568 48.3467 50.9568C48.1688 50.9568 47.9981 51.0266 47.8711 51.1512C47.8085 51.2124 47.7588 51.2855 47.7248 51.3662C47.6908 51.4469 47.6733 51.5336 47.6733 51.6212C47.6733 51.7087 47.6908 51.7954 47.7248 51.8761C47.7588 51.9568 47.8085 52.0299 47.8711 52.0912L50.9875 55.1701L45.7105 60.3834C44.8659 61.2136 43.729 61.6788 42.5447 61.6788C41.3605 61.6788 40.2236 61.2136 39.379 60.3834C38.9644 59.975 38.6351 59.4881 38.4104 58.9513C38.1856 58.4144 38.0699 57.8382 38.0699 57.2561C38.0699 56.6741 38.1856 56.0979 38.4104 55.561C38.6351 55.0241 38.9644 54.5373 39.379 54.1289L44.6561 48.9156L45.6059 49.8542C45.7328 49.979 45.9036 50.0489 46.0815 50.0489C46.2594 50.0489 46.4302 49.979 46.5571 49.8542C46.6197 49.793 46.6695 49.7199 46.7034 49.6392C46.7374 49.5585 46.7549 49.4718 46.7549 49.3843C46.7549 49.2967 46.7374 49.21 46.7034 49.1293C46.6695 49.0486 46.6197 48.9755 46.5571 48.9143L45.6073 47.9756L50.8824 42.7616C51.2367 42.4112 51.647 42.1224 52.0965 41.9071C52.1189 41.8982 52.1408 41.8881 52.1622 41.8769C52.9949 41.4961 53.9235 41.3768 54.8254 41.5348C55.7273 41.6927 56.5601 42.1205 57.2138 42.7616C57.6289 43.1701 57.9586 43.6571 58.1837 44.1943C58.4087 44.7315 58.5246 45.3081 58.5246 45.8905C58.5246 46.4729 58.4087 47.0495 58.1837 47.5867C57.9586 48.1239 57.6289 48.6109 57.2138 49.0194H57.2151Z" fill="#328A27"/>
</g>
</g>
</g>
</g>
</svg>
