<svg width="80" height="80" viewBox="0 0 80 80" fill="none" xmlns="http://www.w3.org/2000/svg">
<g id="icon_catalog_15">
<rect width="80" height="80" rx="8" fill="white"/>
<g id="icon-catalog-11">
<path id="&#208;&#154;&#208;&#190;&#208;&#189;&#209;&#130;&#209;&#131;&#209;&#128; 265" d="M43.6304 29.0709C43.8251 29.0709 44.0118 28.9936 44.1495 28.8559C44.2872 28.7182 44.3645 28.5315 44.3645 28.3368C44.3645 28.1421 44.2872 27.9553 44.1495 27.8177C44.0118 27.68 43.8251 27.6026 43.6304 27.6026H43.569V24.4518C43.5683 23.9359 43.363 23.4414 42.9982 23.0766C42.6335 22.7118 42.1389 22.5066 41.623 22.5059H19.7448C19.2289 22.5066 18.7343 22.7118 18.3695 23.0766C18.0048 23.4414 17.7995 23.9359 17.7988 24.4518V27.6026H17.7341C17.5394 27.6026 17.3527 27.68 17.215 27.8177C17.0773 27.9553 17 28.1421 17 28.3368C17 28.5315 17.0773 28.7182 17.215 28.8559C17.3527 28.9936 17.5394 29.0709 17.7341 29.0709H19.5402V30.8247L18.6398 31.3403C18.1481 31.6697 17.7425 32.1123 17.4572 32.6309C17.172 33.1494 17.0153 33.7289 17.0003 34.3206V57.5789C17.0012 58.4162 17.3342 59.219 17.9263 59.811C18.5183 60.4031 19.3211 60.7361 20.1584 60.737H41.2068C42.0441 60.7361 42.8469 60.4031 43.4389 59.811C44.031 59.219 44.364 58.4162 44.3648 57.5789V34.3206C44.3499 33.7289 44.1932 33.1494 43.9079 32.6309C43.6226 32.1123 43.2171 31.6697 42.7254 31.3403L41.8249 30.8247V29.0709H43.6304ZM42.8966 57.5783C42.8961 58.0263 42.7179 58.4558 42.4011 58.7726C42.0843 59.0893 41.6548 59.2675 41.2068 59.2681H20.1584C19.7104 59.2675 19.2809 59.0893 18.9641 58.7726C18.6473 58.4558 18.4691 58.0263 18.4686 57.5783V55.8885H42.8966V57.5783ZM42.8966 54.4202H18.4686V40.2113H42.8966V54.4202ZM41.9961 32.6145C42.2639 32.8138 42.4837 33.0704 42.6395 33.3656C42.7953 33.6608 42.8831 33.9871 42.8966 34.3206V38.7437H18.4686V34.3206C18.482 33.9871 18.5699 33.6608 18.7257 33.3656C18.8815 33.0704 19.1013 32.8138 19.369 32.6145L20.6393 31.8872C20.7515 31.823 20.8448 31.7302 20.9096 31.6183C20.9744 31.5064 21.0085 31.3794 21.0085 31.2501V29.0709H40.3567V31.2501C40.3566 31.3794 40.3907 31.5064 40.4556 31.6183C40.5204 31.7302 40.6136 31.823 40.7259 31.8872L41.9961 32.6145ZM19.2638 27.6026V24.4518C19.2655 24.3256 19.3164 24.2051 19.4056 24.1159C19.4948 24.0267 19.6153 23.9758 19.7415 23.9741H22.6571V25.4006C22.6571 25.5953 22.7345 25.782 22.8721 25.9197C23.0098 26.0574 23.1965 26.1347 23.3912 26.1347C23.5859 26.1347 23.7727 26.0574 23.9103 25.9197C24.048 25.782 24.1254 25.5953 24.1254 25.4006V23.9741H27.5206V25.4006C27.5206 25.5953 27.598 25.782 27.7356 25.9197C27.8733 26.0574 28.06 26.1347 28.2547 26.1347C28.4495 26.1347 28.6362 26.0574 28.7739 25.9197C28.9115 25.782 28.9889 25.5953 28.9889 25.4006V23.9741H32.3822V25.4006C32.3822 25.5953 32.4595 25.782 32.5972 25.9197C32.7349 26.0574 32.9216 26.1347 33.1163 26.1347C33.311 26.1347 33.4977 26.0574 33.6354 25.9197C33.7731 25.782 33.8504 25.5953 33.8504 25.4006V23.9741H37.2437V25.4006C37.2437 25.5953 37.3211 25.782 37.4587 25.9197C37.5964 26.0574 37.7831 26.1347 37.9778 26.1347C38.1726 26.1347 38.3593 26.0574 38.497 25.9197C38.6346 25.782 38.712 25.5953 38.712 25.4006V23.9741H41.627C41.7531 23.9758 41.8736 24.0267 41.9628 24.1159C42.0521 24.2051 42.1029 24.3256 42.1046 24.4518V27.6026H19.2638Z" fill="#328A27"/>
<path id="&#208;&#154;&#208;&#190;&#208;&#189;&#209;&#130;&#209;&#131;&#209;&#128; 266" d="M26.2911 51.8288H35.0739C36.2543 51.8288 37.3863 51.3599 38.2209 50.5253C39.0556 49.6906 39.5245 48.5586 39.5245 47.3783C39.5245 46.1979 39.0556 45.0659 38.2209 44.2313C37.3863 43.3966 36.2543 42.9277 35.0739 42.9277H26.2911C25.1108 42.9277 23.9787 43.3966 23.1441 44.2313C22.3095 45.0659 21.8406 46.1979 21.8406 47.3783C21.8406 48.5586 22.3095 49.6906 23.1441 50.5253C23.9787 51.3599 25.1108 51.8288 26.2911 51.8288ZM31.4167 44.396H35.0759C35.8668 44.396 36.6254 44.7102 37.1847 45.2695C37.744 45.8288 38.0582 46.5873 38.0582 47.3783C38.0582 48.1692 37.744 48.9278 37.1847 49.4871C36.6254 50.0463 35.8668 50.3605 35.0759 50.3605H31.4167V44.396ZM26.2911 44.396H29.9503V50.3605H26.2911C25.5002 50.3605 24.7416 50.0463 24.1823 49.4871C23.623 48.9278 23.3088 48.1692 23.3088 47.3783C23.3088 46.5873 23.623 45.8288 24.1823 45.2695C24.7416 44.7102 25.5002 44.396 26.2911 44.396Z" fill="#328A27"/>
<path id="&#208;&#154;&#208;&#190;&#208;&#189;&#209;&#130;&#209;&#131;&#209;&#128; 267" d="M38.1548 30.6855H29.0825C28.8878 30.6855 28.7011 30.7629 28.5634 30.9006C28.4257 31.0382 28.3484 31.225 28.3484 31.4197C28.3484 31.6144 28.4257 31.8011 28.5634 31.9388C28.7011 32.0765 28.8878 32.1538 29.0825 32.1538H38.1541C38.3488 32.1538 38.5356 32.0765 38.6733 31.9388C38.8109 31.8011 38.8883 31.6144 38.8883 31.4197C38.8883 31.225 38.8109 31.0382 38.6733 30.9006C38.5356 30.7629 38.3488 30.6855 38.1541 30.6855H38.1548Z" fill="#328A27"/>
<path id="&#208;&#154;&#208;&#190;&#208;&#189;&#209;&#130;&#209;&#131;&#209;&#128; 268" d="M26.1455 30.6855H23.209C23.0143 30.6855 22.8276 30.7629 22.6899 30.9006C22.5522 31.0382 22.4749 31.225 22.4749 31.4197C22.4749 31.6144 22.5522 31.8011 22.6899 31.9388C22.8276 32.0765 23.0143 32.1538 23.209 32.1538H26.1449C26.3396 32.1538 26.5263 32.0765 26.664 31.9388C26.8017 31.8011 26.879 31.6144 26.879 31.4197C26.879 31.225 26.8017 31.0382 26.664 30.9006C26.5263 30.7629 26.3396 30.6855 26.1449 30.6855H26.1455Z" fill="#328A27"/>
<path id="&#208;&#154;&#208;&#190;&#208;&#189;&#209;&#130;&#209;&#131;&#209;&#128; 269" d="M46.9553 57.0675C46.9553 57.2622 47.0327 57.4489 47.1703 57.5866C47.308 57.7243 47.4948 57.8016 47.6895 57.8016C47.8842 57.8016 48.0709 57.7243 48.2086 57.5866C48.3462 57.4489 48.4236 57.2622 48.4236 57.0675V51.1951C48.4236 51.0003 48.3462 50.8136 48.2086 50.6759C48.0709 50.5383 47.8842 50.4609 47.6895 50.4609C47.4948 50.4609 47.308 50.5383 47.1703 50.6759C47.0327 50.8136 46.9553 51.0003 46.9553 51.1951V57.0675Z" fill="#328A27"/>
<path id="&#208;&#154;&#208;&#190;&#208;&#189;&#209;&#130;&#209;&#131;&#209;&#128; 270" d="M47.6898 49.2491C47.8844 49.2491 48.0711 49.1718 48.2087 49.0342C48.3463 48.8966 48.4236 48.7099 48.4236 48.5153V18.6638C48.4236 18.4691 48.3462 18.2824 48.2086 18.1447C48.0709 18.007 47.8842 17.9297 47.6895 17.9297C47.4948 17.9297 47.308 18.007 47.1703 18.1447C47.0327 18.2824 46.9553 18.4691 46.9553 18.6638V48.5153C46.9553 48.6117 46.9743 48.7072 47.0113 48.7963C47.0482 48.8853 47.1023 48.9663 47.1705 49.0344C47.2387 49.1026 47.3197 49.1566 47.4088 49.1934C47.4979 49.2303 47.5934 49.2492 47.6898 49.2491Z" fill="#328A27"/>
<path id="&#208;&#154;&#208;&#190;&#208;&#189;&#209;&#130;&#209;&#131;&#209;&#128; 271" d="M57.47 14.9961H37.9082C36.4462 14.9937 35.043 15.5712 34.0063 16.602C32.9696 17.6329 32.3841 19.0328 32.3782 20.4947C32.3782 20.6895 32.4555 20.8762 32.5932 21.0139C32.7309 21.1515 32.9176 21.2289 33.1123 21.2289C33.307 21.2289 33.4937 21.1515 33.6314 21.0139C33.7691 20.8762 33.8464 20.6895 33.8464 20.4947C33.8508 19.4209 34.2808 18.3927 35.0423 17.6355C35.8037 16.8784 36.8344 16.4541 37.9082 16.4559H57.47C58.5439 16.4541 59.5745 16.8784 60.336 17.6355C61.0974 18.3927 61.5275 19.4209 61.5318 20.4947V55.2378C61.5275 56.3117 61.0974 57.3399 60.336 58.0971C59.5745 58.8542 58.5439 59.2785 57.47 59.2767H45.9964C45.9005 59.2767 45.8056 59.2956 45.7171 59.3323C45.6285 59.369 45.5481 59.4227 45.4803 59.4905C45.4125 59.5583 45.3587 59.6387 45.3221 59.7273C45.2854 59.8158 45.2665 59.9108 45.2665 60.0066C45.2665 60.1025 45.2854 60.1974 45.3221 60.2859C45.3587 60.3745 45.4125 60.4549 45.4803 60.5227C45.5481 60.5905 45.6285 60.6443 45.7171 60.6809C45.8056 60.7176 45.9005 60.7365 45.9964 60.7365H57.47C58.9321 60.7391 60.3354 60.1616 61.3722 59.1308C62.4089 58.0999 62.9943 56.6999 63.0001 55.2378V20.4947C62.9942 19.0328 62.4087 17.6329 61.372 16.602C60.3353 15.5712 58.932 14.9937 57.47 14.9961Z" fill="#328A27"/>
<path id="&#208;&#154;&#208;&#190;&#208;&#189;&#209;&#130;&#209;&#131;&#209;&#128; 272" d="M54.9748 26.5087C55.6835 26.5087 56.3764 26.2985 56.9656 25.9047C57.5549 25.511 58.0142 24.9513 58.2855 24.2966C58.5567 23.6418 58.6276 22.9213 58.4894 22.2261C58.3511 21.531 58.0098 20.8925 57.5087 20.3914C57.0075 19.8902 56.369 19.5489 55.6739 19.4107C54.9788 19.2724 54.2583 19.3433 53.6035 19.6146C52.9487 19.8858 52.389 20.3451 51.9953 20.9344C51.6015 21.5237 51.3914 22.2165 51.3914 22.9252C51.3924 23.8753 51.7703 24.7862 52.4421 25.458C53.1139 26.1298 54.0247 26.5076 54.9748 26.5087ZM54.9748 20.8101C55.3931 20.8101 55.8021 20.9341 56.1499 21.1665C56.4978 21.399 56.7689 21.7293 56.929 22.1158C57.089 22.5023 57.1309 22.9276 57.0493 23.3379C56.9677 23.7482 56.7663 24.1251 56.4704 24.4209C56.1746 24.7167 55.7977 24.9181 55.3874 24.9998C54.9771 25.0814 54.5519 25.0395 54.1654 24.8794C53.7789 24.7193 53.4485 24.4482 53.2161 24.1004C52.9837 23.7525 52.8596 23.3436 52.8596 22.9252C52.8603 22.3645 53.0834 21.8269 53.4799 21.4303C53.8764 21.0338 54.414 20.8108 54.9748 20.8101Z" fill="#328A27"/>
<path id="&#208;&#154;&#208;&#190;&#208;&#189;&#209;&#130;&#209;&#131;&#209;&#128; 273" d="M54.9748 36.4598C55.6835 36.4598 56.3764 36.2497 56.9656 35.8559C57.5549 35.4622 58.0142 34.9025 58.2855 34.2477C58.5567 33.5929 58.6276 32.8724 58.4894 32.1773C58.3511 31.4822 58.0098 30.8437 57.5087 30.3425C57.0075 29.8414 56.369 29.5001 55.6739 29.3618C54.9788 29.2236 54.2583 29.2945 53.6035 29.5657C52.9487 29.837 52.389 30.2963 51.9953 30.8856C51.6015 31.4748 51.3914 32.1677 51.3914 32.8764C51.3924 33.8265 51.7703 34.7373 52.4421 35.4091C53.1139 36.0809 54.0247 36.4588 54.9748 36.4598ZM54.9748 30.7612C55.3931 30.7612 55.8021 30.8853 56.1499 31.1177C56.4978 31.3501 56.7689 31.6805 56.929 32.067C57.089 32.4535 57.1309 32.8787 57.0493 33.2891C56.9677 33.6994 56.7663 34.0762 56.4704 34.372C56.1746 34.6679 55.7977 34.8693 55.3874 34.9509C54.9771 35.0325 54.5519 34.9906 54.1654 34.8306C53.7789 34.6705 53.4485 34.3994 53.2161 34.0515C52.9837 33.7037 52.8596 33.2947 52.8596 32.8764C52.8603 32.3156 53.0834 31.778 53.4799 31.3815C53.8764 30.985 54.414 30.7619 54.9748 30.7612Z" fill="#328A27"/>
<path id="&#208;&#154;&#208;&#190;&#208;&#189;&#209;&#130;&#209;&#131;&#209;&#128; 274" d="M54.9748 46.4384C55.6835 46.4384 56.3764 46.2282 56.9656 45.8344C57.5549 45.4407 58.0142 44.881 58.2855 44.2262C58.5567 43.5715 58.6276 42.8509 58.4894 42.1558C58.3511 41.4607 58.0098 40.8222 57.5087 40.321C57.0075 39.8199 56.369 39.4786 55.6739 39.3403C54.9788 39.2021 54.2583 39.273 53.6035 39.5443C52.9487 39.8155 52.389 40.2748 51.9953 40.8641C51.6015 41.4534 51.3914 42.1462 51.3914 42.8549C51.3924 43.805 51.7703 44.7158 52.4421 45.3876C53.1139 46.0594 54.0247 46.4373 54.9748 46.4384ZM54.9748 40.7398C55.3931 40.7398 55.8021 40.8638 56.1499 41.0962C56.4978 41.3286 56.7689 41.659 56.929 42.0455C57.089 42.432 57.1309 42.8573 57.0493 43.2676C56.9677 43.6779 56.7663 44.0548 56.4704 44.3506C56.1746 44.6464 55.7977 44.8478 55.3874 44.9294C54.9771 45.0111 54.5519 44.9692 54.1654 44.8091C53.7789 44.649 53.4485 44.3779 53.2161 44.03C52.9837 43.6822 52.8596 43.2733 52.8596 42.8549C52.8603 42.2942 53.0834 41.7566 53.4799 41.36C53.8764 40.9635 54.414 40.7404 54.9748 40.7398Z" fill="#328A27"/>
<path id="&#208;&#154;&#208;&#190;&#208;&#189;&#209;&#130;&#209;&#131;&#209;&#128; 275" d="M54.9748 56.3895C55.6835 56.3895 56.3764 56.1793 56.9656 55.7856C57.5549 55.3918 58.0142 54.8322 58.2855 54.1774C58.5567 53.5226 58.6276 52.8021 58.4894 52.107C58.3511 51.4119 58.0098 50.7734 57.5087 50.2722C57.0075 49.7711 56.369 49.4298 55.6739 49.2915C54.9788 49.1532 54.2583 49.2242 53.6035 49.4954C52.9487 49.7666 52.389 50.226 51.9953 50.8152C51.6015 51.4045 51.3914 52.0973 51.3914 52.8061C51.3924 53.7561 51.7703 54.667 52.4421 55.3388C53.1139 56.0106 54.0247 56.3885 54.9748 56.3895ZM54.9748 50.6909C55.3931 50.6909 55.8021 50.815 56.1499 51.0474C56.4978 51.2798 56.7689 51.6101 56.929 51.9966C57.089 52.3831 57.1309 52.8084 57.0493 53.2187C56.9677 53.629 56.7663 54.0059 56.4704 54.3017C56.1746 54.5975 55.7977 54.799 55.3874 54.8806C54.9771 54.9622 54.5519 54.9203 54.1654 54.7602C53.7789 54.6001 53.4485 54.329 53.2161 53.9812C52.9837 53.6334 52.8596 53.2244 52.8596 52.8061C52.86 52.2451 53.0829 51.7071 53.4795 51.3103C53.876 50.9135 54.4138 50.6903 54.9748 50.6896V50.6909Z" fill="#328A27"/>
<path id="&#208;&#154;&#208;&#190;&#208;&#189;&#209;&#130;&#209;&#131;&#209;&#128; 276" d="M39.22 21.1707C39.5728 20.9334 39.9889 20.8078 40.414 20.8102C40.8392 20.8127 41.2538 20.9431 41.6038 21.1844C41.764 21.2867 41.9577 21.3228 42.1441 21.2851C42.3304 21.2475 42.4948 21.1389 42.6027 20.9824C42.7107 20.8259 42.7536 20.6336 42.7225 20.446C42.6915 20.2585 42.5889 20.0903 42.4362 19.9769C41.8432 19.5674 41.1405 19.3461 40.4198 19.3419C39.6991 19.3377 38.9938 19.5508 38.3961 19.9534C38.2347 20.0623 38.1233 20.2308 38.0862 20.4219C38.0491 20.613 38.0895 20.811 38.1984 20.9724C38.3073 21.1337 38.4759 21.2452 38.667 21.2823C38.8581 21.3193 39.0561 21.279 39.2174 21.1701L39.22 21.1707Z" fill="#328A27"/>
</g>
</g>
</svg>
