<svg width="16" height="16" viewBox="0 0 16 16" fill="none" xmlns="http://www.w3.org/2000/svg">
<g id="streamline:interface-time-rewind-back-return-clock-timer-countdown" clip-path="url(#clip0_2008_10622)">
<g id="Group">
<path id="Vector" d="M1 8.00002C1 9.38449 1.41054 10.7379 2.17972 11.889C2.94889 13.0402 4.04214 13.9374 5.32122 14.4672C6.60031 14.997 8.00778 15.1356 9.36565 14.8655C10.7235 14.5954 11.9708 13.9287 12.9498 12.9498C13.9287 11.9708 14.5954 10.7235 14.8655 9.36565C15.1356 8.00778 14.997 6.60031 14.4672 5.32123C13.9374 4.04214 13.0402 2.94889 11.889 2.17972C10.7379 1.41055 9.38449 1 8.00001 1C5.99475 0.997785 4.06594 1.76931 2.61539 3.15386" stroke="black" stroke-width="1.3" stroke-linecap="round" stroke-linejoin="round"/>
<path id="Vector_2" d="M3.1537 1L2.61523 3.15385L4.76908 3.69231M7.99986 4.23078V8.53848L5.19985 9.93848" stroke="black" stroke-width="1.3" stroke-linecap="round" stroke-linejoin="round"/>
</g>
</g>
<defs>
<clipPath id="clip0_2008_10622">
<rect width="16" height="16" fill="white"/>
</clipPath>
</defs>
</svg>
