<svg width="16" height="16" viewBox="0 0 16 16" fill="none" xmlns="http://www.w3.org/2000/svg">
<g id="mingcute:search-line" clip-path="url(#clip0_2008_10626)">
<g id="Group">
<path id="Vector" fill-rule="evenodd" clip-rule="evenodd" d="M6.99993 1.33398C6.09632 1.33406 5.20583 1.55023 4.40276 1.96445C3.59969 2.37867 2.90732 2.97893 2.38342 3.71515C1.85951 4.45138 1.51926 5.30222 1.39106 6.19668C1.26286 7.09114 1.35042 8.0033 1.64644 8.85704C1.94246 9.71078 2.43836 10.4814 3.09275 11.1045C3.74714 11.7276 4.54106 12.1852 5.40827 12.4391C6.27547 12.6929 7.19082 12.7358 8.07794 12.5639C8.96506 12.3921 9.79822 12.0106 10.5079 11.4513L12.9426 13.886C13.0683 14.0074 13.2367 14.0746 13.4115 14.0731C13.5863 14.0716 13.7535 14.0015 13.8771 13.8779C14.0007 13.7543 14.0709 13.5871 14.0724 13.4123C14.0739 13.2375 14.0067 13.0691 13.8853 12.9433L11.4506 10.5087C12.1093 9.67306 12.5194 8.66892 12.634 7.61114C12.7486 6.55335 12.5631 5.48466 12.0987 4.52738C11.6344 3.5701 10.9098 2.76289 10.0081 2.19814C9.1064 1.63339 8.0639 1.33391 6.99993 1.33398ZM2.66659 7.00065C2.66659 5.85138 3.12314 4.74918 3.9358 3.93652C4.74845 3.12386 5.85065 2.66732 6.99993 2.66732C8.1492 2.66732 9.2514 3.12386 10.0641 3.93652C10.8767 4.74918 11.3333 5.85138 11.3333 7.00065C11.3333 8.14992 10.8767 9.25212 10.0641 10.0648C9.2514 10.8774 8.1492 11.334 6.99993 11.334C5.85065 11.334 4.74845 10.8774 3.9358 10.0648C3.12314 9.25212 2.66659 8.14992 2.66659 7.00065Z" fill="black"/>
</g>
</g>
<defs>
<clipPath id="clip0_2008_10626">
<rect width="16" height="16" fill="white"/>
</clipPath>
</defs>
</svg>
